<?xml version="1.0" encoding="utf-8"?>
<!-- Generator: Adobe Illustrator 21.0.0, SVG Export Plug-In . SVG Version: 6.00 Build 0)  -->
<svg version="1.1" id="Capa_1" xmlns="http://www.w3.org/2000/svg" xmlns:xlink="http://www.w3.org/1999/xlink" x="0px" y="0px"
	 viewBox="0 0 1224 598" style="enable-background:new 0 0 1224 598;" xml:space="preserve">
<style type="text/css">
	.st0{fill:#FFFFFF;}
</style>
<g>
	<g>
		<g>
			<g>
				<g>
					<path class="st0" d="M834,443.2v44.4h-7.8v-44.4H834z"/>
					<path class="st0" d="M853.3,487.6h-7.7v-33.5h7.7v5.2c2.2-3.2,5.3-5.9,10.5-5.9c7.6,0,11.9,5.1,11.9,12.9v21.3H868v-19
						c0-5.2-2.6-8.2-7.2-8.2c-4.4,0-7.5,3.1-7.5,8.3V487.6z"/>
					<path class="st0" d="M924.8,453.4c7.3,0,11.7,4.6,11.7,12.8v21.4h-7.7v-19c0-5.3-2.5-8.2-6.8-8.2c-4.2,0-7.2,2.9-7.2,8.3v18.9
						h-7.7v-19.1c0-5.2-2.6-8.1-6.8-8.1c-4.3,0-7.2,3.2-7.2,8.4v18.8h-7.7v-33.5h7.7v5.1c2.2-3,5.1-5.8,10.2-5.8
						c4.8,0,8.2,2.4,10,5.9C916.2,455.7,919.7,453.4,924.8,453.4z"/>
					<path class="st0" d="M962.4,488.4c-10.2,0-17.8-7.8-17.8-17.4c0-9.7,7.6-17.6,17.9-17.6c10.3,0,17.8,7.8,17.8,17.5
						C980.3,480.4,972.7,488.4,962.4,488.4z M962.4,460.1c-6.2,0-10.1,4.8-10.1,10.7c0,6,4.2,10.8,10.2,10.8
						c6.2,0,10.2-4.8,10.2-10.7C972.7,465,968.4,460.1,962.4,460.1z"/>
					<path class="st0" d="M1007.8,488.3c-5.6,0-9-2.8-11.4-5.9v5.2h-7.7v-46.3h7.7v18.4c2.5-3.5,6-6.3,11.4-6.3
						c7.9,0,15.6,6.3,15.6,17.5S1015.7,488.3,1007.8,488.3z M1006,460c-5.2,0-9.8,4.3-9.8,10.8c0,6.5,4.6,10.8,9.8,10.8
						c5.3,0,9.6-4.1,9.6-10.8C1015.5,464.2,1011.2,460,1006,460z"/>
					<path class="st0" d="M1032,449v-7.3h8.3v7.3H1032z M1032.3,487.6v-33.5h7.7v33.5H1032.3z"/>
					<path class="st0" d="M1051,487.6v-46.3h7.7v46.3H1051z"/>
					<path class="st0" d="M1069.5,449v-7.3h8.3v7.3H1069.5z M1069.8,487.6v-33.5h7.7v33.5H1069.8z"/>
					<path class="st0" d="M1108.6,487.6v-4.1c-2.3,2.7-5.8,4.8-10.8,4.8c-6.4,0-11.9-3.6-11.9-10.3v-0.1c0-7.2,5.8-10.8,13.6-10.8
						c4.1,0,6.6,0.6,9.2,1.4v-0.8c0-4.6-2.9-7.2-8.2-7.2c-3.7,0-6.5,0.8-9.6,2.1l-2.1-6.2c3.7-1.6,7.3-2.8,12.7-2.8
						c9.9,0,14.7,5.2,14.7,14.1v19.9H1108.6z M1108.8,473.4c-2-0.8-4.7-1.3-7.7-1.3c-4.9,0-7.7,2-7.7,5.4v0.1c0,3.2,2.8,5,6.5,5
						c5.1,0,8.9-2.9,8.9-7V473.4z"/>
					<path class="st0" d="M1133.6,487.6h-7.7v-33.5h7.7v7.6c2.1-5,6-8.5,11.9-8.2v8.1h-0.4c-6.7,0-11.4,4.4-11.4,13.2V487.6z"/>
					<path class="st0" d="M1152.9,449v-7.3h8.2v7.3H1152.9z M1153.2,487.6v-33.5h7.7v33.5H1153.2z"/>
					<path class="st0" d="M1192,487.6v-4.1c-2.3,2.7-5.8,4.8-10.8,4.8c-6.3,0-11.9-3.6-11.9-10.3v-0.1c0-7.2,5.8-10.8,13.6-10.8
						c4,0,6.6,0.6,9.3,1.4v-0.8c0-4.6-3-7.2-8.2-7.2c-3.8,0-6.5,0.8-9.6,2.1l-2.1-6.2c3.7-1.6,7.3-2.8,12.7-2.8
						c9.9,0,14.7,5.2,14.7,14.1v19.9H1192z M1192.2,473.4c-2-0.8-4.7-1.3-7.7-1.3c-4.8,0-7.7,2-7.7,5.4v0.1c0,3.2,2.9,5,6.5,5
						c5.1,0,8.9-2.9,8.9-7V473.4z"/>
				</g>
			</g>
			<g>
				<g>
					<g>
						<path class="st0" d="M307.4,197.5h73.7v21.6h-48.5V233h44v20h-44v14.5h49.2v21.6h-74.3V197.5z"/>
						<path class="st0" d="M392.6,243.6v-0.3c0-26.7,20.6-47.6,48.3-47.6c18.7,0,30.8,7.9,38.9,19.1l-19.1,14.8
							c-5.3-6.6-11.3-10.7-20-10.7c-12.8,0-21.9,10.9-21.9,24.2v0.3c0,13.8,9,24.5,21.9,24.5c9.6,0,15.2-4.5,20.7-11.1l19.1,13.6
							c-8.7,11.9-20.3,20.7-40.6,20.7C413.6,291,392.6,271,392.6,243.6z"/>
						<path class="st0" d="M492.9,197.5h25.4v34.3h32.6v-34.3h25.4v91.6h-25.4v-34.8h-32.6v34.8h-25.4V197.5z"/>
						<path class="st0" d="M594.2,197.5h73.7v21.6h-48.6V233h44v20h-44v14.5h49.2v21.6h-74.3V197.5z"/>
						<path class="st0" d="M675.9,197.5h28.4l20.8,58l20.8-58h27.8l-37.2,92.3H713L675.9,197.5z"/>
						<path class="st0" d="M784.4,197.5H858v21.6h-48.6V233h44v20h-44v14.5h49.2v21.6h-74.3V197.5z"/>
						<path class="st0" d="M873.3,197.5h43.3c14,0,23.7,3.7,29.8,9.9c5.4,5.2,8.1,12.3,8.1,21.3v0.3c0,14-7.5,23.3-18.8,28.1
							l21.9,32h-29.3l-18.5-27.8h-0.2h-10.9v27.8h-25.4V197.5z M915.5,241.5c8.6,0,13.6-4.2,13.6-10.9v-0.2
							c0-7.2-5.2-10.9-13.7-10.9h-16.6v22H915.5z"/>
						<path class="st0" d="M969.1,197.5h43.3c14,0,23.7,3.7,29.8,9.9c5.4,5.2,8.1,12.3,8.1,21.3v0.3c0,14-7.5,23.3-18.8,28.1
							l21.8,32h-29.3l-18.5-27.8h-0.2h-10.9v27.8h-25.4V197.5z M1011.3,241.5c8.6,0,13.6-4.2,13.6-10.9v-0.2
							c0-7.2-5.3-10.9-13.8-10.9h-16.6v22H1011.3z"/>
						<path class="st0" d="M1065.5,197.5h25.5v91.6h-25.5V197.5z"/>
						<path class="st0" d="M1141.1,196.9h24.5l39,92.3h-27.2l-6.7-16.4h-35.3l-6.5,16.4h-26.7L1141.1,196.9z M1163.4,253l-10.2-26
							l-10.3,26H1163.4z"/>
						<g>
							<path class="st0" d="M438.5,315.1H464v91.6h-25.5V315.1z"/>
							<path class="st0" d="M478.9,388.3l45.9-51.7h-44.4v-21.5h79.4v18.5L514,385.2h45.9v21.5h-81V388.3z"/>
							<path class="st0" d="M644.2,400.4c-7.8,5.1-17.4,8.1-27.9,8.1c-28.3,0-49.2-21.1-49.2-47.4v-0.3c0-26.3,21.2-47.7,49.5-47.7
								c28.3,0,49.2,21.1,49.2,47.4v0.3c0,9.7-2.9,18.8-8.1,26.3l9.4,8l-12.8,14.3L644.2,400.4z M625.9,384.3l-12.7-10.8l12.8-14.4
								l12.4,11.3c1.1-2.7,1.6-5.8,1.6-8.9v-0.3c0-13.4-9.5-25-23.7-25c-13.9,0-23.2,11.5-23.2,24.7v0.3c0,13.2,9.4,24.9,23.4,24.9
								C620,386,623.1,385.4,625.9,384.3z"/>
							<path class="st0" d="M678.9,366.5v-51.4h25.8V366c0,13.2,6.7,19.5,16.9,19.5c10.2,0,16.9-6,16.9-18.8v-51.6h25.8v50.8
								c0,29.6-16.9,42.5-42.9,42.5C695.2,408.4,678.9,395.2,678.9,366.5z"/>
							<path class="st0" d="M780.8,315.1h25.5v91.6h-25.5V315.1z"/>
							<path class="st0" d="M824.2,315.1h73.6v21.6h-48.5v13.9h44v20h-44v14.5h49.3v21.6h-74.4V315.1z"/>
							<path class="st0" d="M912.5,315.1h43.3c14,0,23.7,3.7,29.9,9.9c5.3,5.2,8.1,12.3,8.1,21.3v0.3c0,14-7.5,23.3-18.8,28.1
								l21.8,31.9h-29.3L949,379h-0.3h-10.9v27.7h-25.4V315.1z M954.6,359.1c8.7,0,13.6-4.2,13.6-10.9V348c0-7.2-5.3-10.9-13.7-10.9
								h-16.6v22H954.6z"/>
							<path class="st0" d="M1007.6,315.1h35.4c32.7,0,51.7,18.8,51.7,45.3v0.3c0,26.4-19.2,46.1-52.2,46.1h-34.8V315.1z
								 M1043.4,384.2c15.2,0,25.2-8.4,25.2-23.2v-0.3c0-14.7-10-23.2-25.2-23.2H1033v46.6H1043.4z"/>
							<path class="st0" d="M1105.6,361.2v-0.3c0-26.3,21.2-47.7,49.5-47.7c28.2,0,49.2,21.1,49.2,47.4v0.3
								c0,26.3-21.2,47.6-49.5,47.6C1126.6,408.6,1105.6,387.5,1105.6,361.2z M1178.4,361.2v-0.3c0-13.2-9.6-24.7-23.6-24.7
								c-13.9,0-23.2,11.3-23.2,24.5v0.3c0,13.2,9.5,24.7,23.4,24.7C1169.1,385.6,1178.4,374.4,1178.4,361.2z"/>
						</g>
					</g>
				</g>
			</g>
		</g>
		<polygon class="st0" points="18.5,86.6 229,86.6 18.5,295.2 		"/>
	</g>
</g>
</svg>
